<svg width="21" height="21" viewBox="0 0 21 21" fill="none" xmlns="http://www.w3.org/2000/svg">
<path d="M13.5625 15.75H12.6875C12.4459 15.75 12.25 15.9459 12.25 16.1875V19.25H1.75001V1.75001H12.25V4.81253C12.25 5.05415 12.4459 5.25004 12.6875 5.25004H13.5625C13.8041 5.25004 14 5.05415 14 4.81253V1.75001C14 0.783522 13.2165 0 12.25 0H1.75001C0.783522 0 0 0.783522 0 1.75001V19.25C0 20.2165 0.783522 21 1.75001 21H12.25C13.2165 21 14 20.2165 14 19.25V16.1875C14 15.9459 13.8041 15.75 13.5625 15.75Z" fill="white"/>
<path d="M20.8582 10.1774L15.6082 5.36494C15.48 5.2483 15.2942 5.21626 15.1365 5.28718C14.9776 5.35682 14.875 5.51404 14.875 5.68749V6.56252C14.875 6.68643 14.9276 6.80476 15.0198 6.88765L18.0612 9.62503H5.68751C5.44569 9.62503 5.25 9.82072 5.25 10.0625V10.9375C5.25 11.1794 5.44569 11.375 5.68751 11.375H18.0612L15.0198 14.1124C14.9276 14.1953 14.875 14.3137 14.875 14.4376V15.3125C14.875 15.486 14.9776 15.6433 15.1365 15.7129C15.1929 15.7381 15.2531 15.75 15.3125 15.75C15.4198 15.75 15.5257 15.7103 15.6082 15.6351L20.8582 10.8226C20.9487 10.7397 21 10.6227 21 10.5C21 10.3774 20.9487 10.2603 20.8582 10.1774Z" fill="white"/>
</svg>
