<svg width="43" height="43" viewBox="0 0 43 43" fill="none" xmlns="http://www.w3.org/2000/svg">
<g opacity="0.7">
<g clip-path="url(#clip0)">
<path d="M17.5765 14.772L15.4185 28.2015H18.8679L21.0246 14.772H17.5765ZM27.9812 20.2424C26.7758 19.6471 26.0368 19.2454 26.0368 18.6366C26.0516 18.083 26.6617 17.5159 28.0243 17.5159C29.1449 17.4877 29.9686 17.7511 30.5935 18.0131L30.9066 18.1529L31.3755 15.3431C30.6942 15.0797 29.6139 14.7895 28.2795 14.7895C24.8731 14.7895 22.4745 16.5606 22.4596 19.0936C22.4315 20.9628 24.1769 22 25.4831 22.6223C26.8175 23.2606 27.2717 23.6744 27.2717 24.2415C27.257 25.1123 26.1928 25.514 25.1997 25.514C23.8238 25.514 23.0847 25.3071 21.9627 24.8219L21.5085 24.615L21.0261 27.535C21.8364 27.8952 23.3265 28.2122 24.8733 28.2284C28.4934 28.2284 30.8489 26.4842 30.8785 23.7847C30.8903 22.3038 29.97 21.1696 27.9812 20.2424ZM40.2187 14.8135H37.55C36.7276 14.8135 36.1027 15.0501 35.7466 15.894L30.6228 28.2015H34.2429L35.2399 25.5369H39.2901L39.8074 28.2122H43.0002L40.2187 14.8135ZM36.2439 22.8478C36.3138 22.8546 37.6334 18.498 37.6334 18.498L38.6842 22.8478C38.6842 22.8478 36.9252 22.8478 36.2439 22.8478ZM12.5362 14.772L9.1566 23.8961L8.78844 22.0967C8.16355 20.0206 6.20444 17.7645 4.01807 16.6438L7.11274 28.1881H10.7624L16.1859 14.7734H12.5362V14.772Z" fill="#2394BC"/>
<path d="M7.65135 16.5043C7.38798 15.4803 6.54807 14.7896 5.40735 14.7749H0.0551199L0 15.0234C4.17511 16.0527 7.6795 19.2199 8.81638 22.199L7.65135 16.5043Z" fill="#EFC75E"/>
</g>
</g>
<defs>
<clipPath id="clip0">
<rect width="43" height="43" fill="white"/>
</clipPath>
</defs>
</svg>
